<svg version="1.1" xmlns="http://www.w3.org/2000/svg" xmlns:xlink="http://www.w3.org/1999/xlink" stroke-linecap="round" stroke-linejoin="round" stroke-width="0" fill-rule="evenodd" clip-rule="evenodd" id="dRuYs_VOfxOShmXWoYRb_bottom" viewBox="0 0 1080 800" width="1.08in" height="0.8in" class="w-100 h-100"><defs><style>.dRuYs_VOfxOShmXWoYRb_fr4 {color: #666666;}
.dRuYs_VOfxOShmXWoYRb_cu {color: #cccccc;}
.dRuYs_VOfxOShmXWoYRb_cf {color: #cc9933;}
.dRuYs_VOfxOShmXWoYRb_sm {color: #004200; opacity: 0.75;}
.dRuYs_VOfxOShmXWoYRb_ss {color: #ffffff;}
.dRuYs_VOfxOShmXWoYRb_sp {color: #999999;}
.dRuYs_VOfxOShmXWoYRb_out {color: #000000;}</style><circle cx="0" cy="0" r="37.5" id="QuwQzW9WGPVUunrVy_XF_pad-19"/><circle cx="0" cy="0" r="12" id="QuwQzW9WGPVUunrVy_XF_pad-14"/><circle cx="0" cy="0" r="41.5" id="bq-TDK9k1LMLpJjsUmDn_pad-32"/><circle cx="0" cy="0" r="39.5" id="Iuei8qnMiVP4nGLohRj-_pad-1"/><circle cx="0" cy="0" r="6" id="sPzsNYhzyNIth3kAeZhu_pad-1"/><circle cx="0" cy="0" r="16" id="sPzsNYhzyNIth3kAeZhu_pad-2"/><g id="dRuYs_VOfxOShmXWoYRb_bottom_silkscreen"><path d="M 600.6 388.2 600.6 336.1 519.2 336.1 519.2 388.2 M 600.6 432.6 600.6 484.6 519.2 484.6 519.2 432.6 M 695.6 488.2 695.6 436.1 614.2 436.1 614.2 488.2 M 695.6 532.6 695.6 584.6 614.2 584.6 614.2 532.6 M 695.6 293.2 695.6 241.1 614.2 241.1 614.2 293.2 M 695.6 337.6 695.6 389.6 614.2 389.6 614.2 337.6 M 505.6 293.2 505.6 241.1 424.2 241.1 424.2 293.2 M 505.6 337.6 505.6 389.6 424.2 389.6 424.2 337.6 M 410.7 293.2 410.7 241.1 329.2 241.1 329.2 293.2 M 410.7 337.6 410.7 389.6 329.2 389.6 329.2 337.6 M 450.7 488.2 450.7 436.1 369.2 436.1 369.2 488.2 M 450.7 532.6 450.7 584.6 369.2 584.6 369.2 532.6" fill="none" stroke-width="7.87"/><path d="M 797.3 368.3 712.6 368.3 M 797.3 259.1 797.3 400.8 M 712.6 259.1 712.6 400.8" fill="none" stroke-width="10"/><path d="M 225.7 158.2 225.7 106.1 144.2 106.1 144.2 158.2 M 225.7 202.6 225.7 254.6 144.2 254.6 144.2 202.6 M 790.6 488.2 790.6 436.1 709.2 436.1 709.2 488.2 M 790.6 532.6 790.6 584.6 709.2 584.6 709.2 532.6" fill="none" stroke-width="7.87"/><path d="M 350 692.1 341.9 671.1 M 334 692.1 341.9 671.1 M 312.3 687.1 313.4 689.2 315.3 691.1 317.3 692.1 321.3 692.1 323.4 691.1 325.3 689.2 326.3 687.1 327.3 684.2 327.3 679.2 326.3 676.1 325.3 674.2 323.4 672.1 321.3 671.1 317.3 671.1 315.3 672.1 313.4 674.2 312.3 676.1 M 290.7 687.1 291.7 689.2 293.8 691.1 295.7 692.1 299.8 692.1 301.7 691.1 303.8 689.2 304.8 687.1 305.7 684.2 305.7 679.2 304.8 676.1 303.8 674.2 301.7 672.1 299.8 671.1 295.7 671.1 293.8 672.1 291.7 674.2 290.7 676.1 M 450 692.1 450 671.1 M 437.3 692.1 439.4 691.1 441.3 689.2 442.3 687.1 443.4 684.2 443.4 679.2 442.3 676.1 441.3 674.2 439.4 672.1 437.3 671.1 433.4 671.1 431.3 672.1 429.4 674.2 428.4 676.1 427.3 679.2 427.3 684.2 428.4 687.1 429.4 689.2 431.3 691.1 433.4 692.1 437.3 692.1 M 420.7 688.2 418.8 689.2 415.7 692.1 415.7 671.1 M 407.1 692.1 396.1 692.1 402.1 684.2 399.2 684.2 397.1 683.2 396.1 682.1 395.1 679.2 395.1 677.1 396.1 674.2 398.2 672.1 401.1 671.1 404.2 671.1 407.1 672.1 408.2 673.2 409.2 675.1 M 550 692.1 550 671.1 M 537.3 692.1 539.3 691.1 541.4 689.2 542.3 687.1 543.4 684.2 543.4 679.2 542.3 676.1 541.4 674.2 539.3 672.1 537.3 671.1 533.4 671.1 531.4 672.1 529.3 674.2 528.4 676.1 527.3 679.2 527.3 684.2 528.4 687.1 529.3 689.2 531.4 691.1 533.4 692.1 537.3 692.1 M 520.7 688.2 518.8 689.2 515.7 692.1 515.7 671.1 M 508.1 687.1 508.1 688.2 507.2 690.1 506.1 691.1 504.2 692.1 500.2 692.1 498.1 691.1 497.2 690.1 496.1 688.2 496.1 686.1 497.2 684.2 499.2 681.1 509.2 671.1 495.2 671.1 M 647.5 692.1 647.5 671.1 M 634.8 692.1 636.8 691.1 638.9 689.2 639.8 687.1 640.9 684.2 640.9 679.2 639.8 676.1 638.9 674.2 636.8 672.1 634.8 671.1 630.9 671.1 628.9 672.1 626.8 674.2 625.9 676.1 624.8 679.2 624.8 684.2 625.9 687.1 626.8 689.2 628.9 691.1 630.9 692.1 634.8 692.1 M 618.2 688.2 616.3 689.2 613.2 692.1 613.2 671.1 M 596.7 692.1 606.7 678.2 591.7 678.2 M 596.7 692.1 596.7 671.1 M 741.9 692.1 750 671.1 M 741.9 692.1 733.9 671.1 M 746.9 678.2 736.9 678.2 M 727.3 692.1 727.3 671.1 M 727.3 692.1 720.3 692.1 717.3 691.1 715.3 689.2 714.3 687.1 713.4 684.2 713.4 679.2 714.3 676.1 715.3 674.2 717.3 672.1 720.3 671.1 727.3 671.1 M 691.8 687.1 692.7 689.2 694.7 691.1 696.8 692.1 700.7 692.1 702.7 691.1 704.7 689.2 705.7 687.1 706.8 684.2 706.8 679.2 705.7 676.1 704.7 674.2 702.7 672.1 700.7 671.1 696.8 671.1 694.7 672.1 692.7 674.2 691.8 676.1 M 352.5 127.1 344.4 106.1 M 336.5 127.1 344.4 106.1 M 329.8 127.1 329.8 106.1 M 323.2 127.1 323.2 106.1 M 323.2 127.1 309.2 106.1 M 309.2 127.1 309.2 106.1 M 442.5 122.1 443.4 124.2 445.5 126.1 447.5 127.1 451.5 127.1 453.4 126.1 455.5 124.2 456.5 122.1 457.5 119.2 457.5 114.2 456.5 111.1 455.5 109.2 453.4 107.1 451.5 106.1 447.5 106.1 445.5 107.1 443.4 109.2 442.5 111.1 442.5 114.2 M 447.5 114.2 442.5 114.2 M 435.9 127.1 435.9 106.1 M 435.9 127.1 421.9 106.1 M 421.9 127.1 421.9 106.1 M 415.3 127.1 415.3 106.1 M 415.3 127.1 408.2 127.1 405.3 126.1 403.2 124.2 402.3 122.1 401.3 119.2 401.3 114.2 402.3 111.1 403.2 109.2 405.3 107.1 408.2 106.1 415.3 106.1 M 552.5 129.6 552.5 108.6 M 539.8 129.6 541.8 128.6 543.9 126.7 544.8 124.6 545.9 121.7 545.9 116.7 544.8 113.6 543.9 111.7 541.8 109.6 539.8 108.6 535.9 108.6 533.9 109.6 531.8 111.7 530.9 113.6 529.8 116.7 529.8 121.7 530.9 124.6 531.8 126.7 533.9 128.6 535.9 129.6 539.8 129.6 M 522.2 124.6 522.2 125.7 521.3 127.6 520.2 128.6 518.2 129.6 514.3 129.6 512.2 128.6 511.3 127.6 510.2 125.7 510.2 123.6 511.3 121.7 513.2 118.6 523.2 108.6 509.3 108.6 M 650 127.1 650 106.1 M 637.3 127.1 639.3 126.1 641.4 124.2 642.3 122.1 643.4 119.2 643.4 114.2 642.3 111.1 641.4 109.2 639.3 107.1 637.3 106.1 633.4 106.1 631.4 107.1 629.3 109.2 628.4 111.1 627.3 114.2 627.3 119.2 628.4 122.1 629.3 124.2 631.4 126.1 633.4 127.1 637.3 127.1 M 610.7 127.1 620.7 113.2 605.7 113.2 M 610.7 127.1 610.7 106.1 M 750 127.1 750 106.1 M 737.3 127.1 739.3 126.1 741.4 124.2 742.3 122.1 743.4 119.2 743.4 114.2 742.3 111.1 741.4 109.2 739.3 107.1 737.3 106.1 733.4 106.1 731.4 107.1 729.3 109.2 728.4 111.1 727.3 114.2 727.3 119.2 728.4 122.1 729.3 124.2 731.4 126.1 733.4 127.1 737.3 127.1 M 708.8 127.1 718.8 127.1 719.7 118.2 718.8 119.2 715.7 120.1 712.7 120.1 709.7 119.2 707.7 117.1 706.8 114.2 706.8 112.1 707.7 109.2 709.7 107.1 712.7 106.1 715.7 106.1 718.8 107.1 719.7 108.2 720.7 110.1 M 122.1 135 124.2 134 126.1 131.9 127.1 130 127.1 125.9 126.1 124 124.2 121.9 122.1 120.9 119.2 120 114.2 120 111.1 120.9 109.2 121.9 107.1 124 106.1 125.9 106.1 130 107.1 131.9 109.2 134 111.1 135 114.2 135 M 114.2 130 114.2 135 M 127.1 141.5 106.1 141.5 M 127.1 141.5 106.1 155.5 M 127.1 155.5 106.1 155.5 M 127.1 162.1 106.1 162.1 M 127.1 162.1 127.1 169.2 126.1 172.1 124.2 174.2 122.1 175.1 119.2 176.1 114.2 176.1 111.1 175.1 109.2 174.2 107.1 172.1 106.1 169.2 106.1 162.1 M 127.1 225 106.1 225 M 127.1 237.6 126.1 235.5 124.2 233.6 122.1 232.6 119.2 231.5 114.2 231.5 111.1 232.6 109.2 233.6 107.1 235.5 106.1 237.6 106.1 241.5 107.1 243.6 109.2 245.5 111.1 246.5 114.2 247.6 119.2 247.6 122.1 246.5 124.2 245.5 126.1 243.6 127.1 241.5 127.1 237.6 M 127.1 260.1 126.1 257.1 123.2 255.1 118.2 254.2 115.1 254.2 110.1 255.1 107.1 257.1 106.1 260.1 106.1 262.1 107.1 265.1 110.1 267.1 115.1 268.2 118.2 268.2 123.2 267.1 126.1 265.1 127.1 262.1 127.1 260.1 M 127.1 320 106.1 320 M 127.1 320 127.1 329 126.1 331.9 125.1 333 123.2 334 121.1 334 119.2 333 118.2 331.9 117.1 329 117.1 320 M 117.1 326.9 106.1 334 M 124.2 354.6 126.1 352.6 127.1 349.6 127.1 345.5 126.1 342.6 124.2 340.5 122.1 340.5 120.1 341.5 119.2 342.6 118.2 344.6 116.1 350.5 115.1 352.6 114.2 353.6 112.1 354.6 109.2 354.6 107.1 352.6 106.1 349.6 106.1 345.5 107.1 342.6 109.2 340.5 M 127.1 368.2 106.1 368.2 M 127.1 361.1 127.1 375.1 M 127.1 420 106.1 420 M 127.1 420 127.1 429 126.1 431.9 125.1 433 123.2 434 121.1 434 119.2 433 118.2 431.9 117.1 429 117.1 420 M 117.1 426.9 106.1 434 M 127.1 440.5 106.1 454.6 M 127.1 454.6 106.1 440.5 M 127.1 461.1 106.1 461.1 M 127.1 461.1 127.1 468.2 126.1 471.1 124.2 473.2 122.1 474.2 119.2 475.1 114.2 475.1 111.1 474.2 109.2 473.2 107.1 471.1 106.1 468.2 106.1 461.1 M 127.1 526.9 106.1 526.9 M 127.1 520 127.1 534 M 127.1 540.5 106.1 554.6 M 127.1 554.6 106.1 540.5 M 127.1 561.1 106.1 561.1 M 127.1 561.1 127.1 568.2 126.1 571.1 124.2 573.2 122.1 574.2 119.2 575.1 114.2 575.1 111.1 574.2 109.2 573.2 107.1 571.1 106.1 568.2 106.1 561.1" fill="none" stroke-width="4"/><path d="M 552 518.3 549.7 519.5 547.4 521.8 546.3 524 546.3 528.6 547.4 530.8 549.7 533.1 552 534.3 555.4 535.4 561.1 535.4 564.5 534.3 566.8 533.1 569 530.8 570.2 528.6 570.2 524 569 521.8 566.8 519.5 564.5 518.3 M 552 509.7 550.8 509.7 548.6 508.6 547.4 507.4 546.3 505.2 546.3 500.6 547.4 498.3 548.6 497.2 550.8 496.1 553.1 496.1 555.4 497.2 558.8 499.5 570.2 510.8 570.2 494.9 M 579.7 590 603.6 590 M 579.7 590 579.7 579.7 580.9 576.3 582 575.2 584.3 574 586.5 574 588.8 575.2 590 576.3 591.1 579.7 591.1 590 M 591.1 582 603.6 574 M 579.7 552.9 579.7 564.3 590 565.4 588.8 564.3 587.7 560.9 587.7 557.5 588.8 554 591.1 551.8 594.5 550.6 596.8 550.6 600.2 551.8 602.5 554 603.6 557.5 603.6 560.9 602.5 564.3 601.3 565.4 599 566.5 M 579.7 300 603.6 300 M 579.7 300 579.7 289.7 580.9 286.3 582 285.2 584.3 284 586.5 284 588.8 285.2 590 286.3 591.1 289.7 591.1 300 M 591.1 292 603.6 284 M 579.7 265.2 595.6 276.5 595.6 259.5 M 579.7 265.2 603.6 265.2 M 519.7 300 543.6 300 M 519.7 300 519.7 289.7 520.9 286.3 522 285.2 524.3 284 526.5 284 528.8 285.2 530 286.3 531.1 289.7 531.1 300 M 531.1 292 543.6 284 M 519.7 274.3 519.7 261.8 528.8 268.6 528.8 265.2 530 262.9 531.1 261.8 534.5 260.6 536.8 260.6 540.2 261.8 542.5 264 543.6 267.5 543.6 270.9 542.5 274.3 541.3 275.4 539 276.5 M 294.7 297.5 318.6 297.5 M 294.7 297.5 294.7 287.2 295.9 283.8 297 282.7 299.3 281.5 301.5 281.5 303.8 282.7 305 283.8 306.1 287.2 306.1 297.5 M 306.1 289.5 318.6 281.5 M 300.4 272.9 299.3 272.9 297 271.8 295.9 270.6 294.7 268.4 294.7 263.8 295.9 261.5 297 260.4 299.3 259.3 301.5 259.3 303.8 260.4 307.2 262.7 318.6 274 318.6 258.1 M 334.7 590 358.6 590 M 334.7 590 334.7 579.7 335.9 576.3 337 575.2 339.3 574 341.5 574 343.8 575.2 345 576.3 346.1 579.7 346.1 590 M 346.1 582 358.6 574 M 339.3 566.5 338.1 564.3 334.7 560.9 358.6 560.9 M 809.7 345 833.6 345 M 809.7 345 809.7 337 810.9 333.6 813.1 331.3 815.4 330.2 818.8 329 824.5 329 827.9 330.2 830.2 331.3 832.5 333.6 833.6 337 833.6 345 M 814.3 321.5 813.1 319.3 809.7 315.9 833.6 315.9 M 254.5 177 256.8 175.9 259 173.6 260.2 171.3 260.2 166.8 259 164.5 256.8 162.2 254.5 161.1 251.1 160 245.4 160 242 161.1 239.7 162.2 237.5 164.5 236.3 166.8 236.3 171.3 237.5 173.6 239.7 175.9 242 177 M 260.2 186.8 260.2 199.3 251.1 192.5 251.1 195.9 250 198.1 248.8 199.3 245.4 200.4 243.1 200.4 239.7 199.3 237.5 197 236.3 193.6 236.3 190.2 237.5 186.8 238.6 185.6 240.9 184.5 M 799.7 590 823.6 590 M 799.7 590 799.7 579.7 800.9 576.3 802 575.2 804.3 574 806.5 574 808.8 575.2 810 576.3 811.1 579.7 811.1 590 M 811.1 582 823.6 574 M 803.1 552.9 800.9 554 799.7 557.5 799.7 559.7 800.9 563.1 804.3 565.4 810 566.5 815.6 566.5 820.2 565.4 822.5 563.1 823.6 559.7 823.6 558.6 822.5 555.2 820.2 552.9 816.8 551.8 815.6 551.8 812.2 552.9 810 555.2 808.8 558.6 808.8 559.7 810 563.1 812.2 565.4 815.6 566.5" fill="none" stroke-width="5"/><path d="M 527.5 614.6 527.5 593.6 M 514.8 614.6 516.8 613.6 518.9 611.7 519.8 609.6 520.9 606.7 520.9 601.7 519.8 598.6 518.9 596.7 516.8 594.6 514.8 593.6 510.9 593.6 508.9 594.6 506.8 596.7 505.9 598.6 504.8 601.7 504.8 606.7 505.9 609.6 506.8 611.7 508.9 613.6 510.9 614.6 514.8 614.6 M 498.2 610.7 496.3 611.7 493.2 614.6 493.2 593.6 M 474.7 614.6 484.7 614.6 485.6 605.7 484.7 606.7 481.7 607.6 478.6 607.6 475.6 606.7 473.6 604.6 472.7 601.7 472.7 599.6 473.6 596.7 475.6 594.6 478.6 593.6 481.7 593.6 484.7 594.6 485.6 595.7 486.7 597.6" fill="none" stroke-width="4"/></g><g id="dRuYs_VOfxOShmXWoYRb_bottom_copper"><path d="M 402.5 162.5 402.5 145 432.5 115 485 115 530 50 M 522.5 162.5 522.5 152.5 560 115 592.5 115 630 50 M 582.5 162.5 645 162.5 730 77.5 730 50" fill="none" stroke-width="10"/><path d="M 410 470 335 470 295 430 295 415" fill="none" stroke-width="25"/><path d="M 402.5 162.5 402.5 205 370 237.5 370 275" fill="none" stroke-width="10"/><path d="M 185 140 185 150 57.5 150 M 185 220 250 220" fill="none" stroke-width="20"/><path d="M 755 398.8 756 398.8 810 345 810 172.5 820 162.5 M 655 550 665 550 745 470 750 470 M 185 290 130 290 70 350 57.5 350 M 755 261.1 704.9 261.1 691 275 655 275" fill="none" stroke-width="10"/><path d="M 652.5 460 407.5 460 M 60 715 60 675 M 370 355 465 355 M 655 355 465 355" fill="none" stroke-width="20"/><path d="M 405 652.5 405 550 410 550" fill="none" stroke-width="10"/><path d="M 210 395 210 622.5 190 642.5" fill="none" stroke-width="20"/><path d="M 295 415 295 395 210 395" fill="none" stroke-width="25"/><path d="M 730 750 730 750 750 710 750 550" fill="none" stroke-width="10"/><path d="M 60 715 60 655 100 615 125 615 155 585 155 370 250 325 250 130 330 50 M 57.5 150 57.5 80" fill="none" stroke-width="25"/><path d="M 655 550 692.5 595 700 602.5 700 652.5 M 462.5 159.2 462.5 275 465 275 M 757.5 162.5 757.5 261.1 755 261.1" fill="none" stroke-width="10"/><path d="M 295 162.5 295 415 295 415 M 342.5 162.5 342.5 162.5 295 162.5 295 162.5" fill="none" stroke-width="25"/><path d="M 410 550 492.5 550 497.5 545" fill="none" stroke-width="10"/><path d="M 531 472.8 531 427.1 588.9 427.1 588.9 472.8 531 472.8"/><path d="M 531 392.8 531 347.1 588.9 347.1 588.9 392.8 531 392.8"/><path d="M 626 572.8 626 527.1 683.9 527.1 683.9 572.8 626 572.8"/><path d="M 626 492.8 626 447.1 683.9 447.1 683.9 492.8 626 492.8"/><path d="M 626 377.8 626 332.1 683.9 332.1 683.9 377.8 626 377.8"/><path d="M 626 297.8 626 252.1 683.9 252.1 683.9 297.8 626 297.8"/><path d="M 436.1 377.8 436.1 332.1 493.9 332.1 493.9 377.8 436.1 377.8"/><path d="M 436.1 297.8 436.1 252.1 493.9 252.1 493.9 297.8 436.1 297.8"/><path d="M 341.1 377.8 341.1 332.1 398.8 332.1 398.8 377.8 341.1 377.8"/><path d="M 341.1 297.8 341.1 252.1 398.8 252.1 398.8 297.8 341.1 297.8"/><path d="M 381.1 572.8 381.1 527.1 438.8 527.1 438.8 572.8 381.1 572.8"/><path d="M 381.1 492.8 381.1 447.1 438.8 447.1 438.8 492.8 381.1 492.8"/><path d="M 784.5 381.1 784.5 416.6 725.4 416.6 725.4 381.1 784.5 381.1"/><path d="M 784.5 243.3 784.5 278.8 725.4 278.8 725.4 243.3 784.5 243.3"/><path d="M 156.1 242.8 156.1 197.1 213.8 197.1 213.8 242.8 156.1 242.8"/><path d="M 156.1 162.8 156.1 117.1 213.8 117.1 213.8 162.8 156.1 162.8"/><path d="M 721 572.8 721 527.1 778.9 527.1 778.9 572.8 721 572.8"/><path d="M 721 492.8 721 447.1 778.9 447.1 778.9 492.8 721 492.8"/><path d="M 533.9 582.9 471 582.9 471 512 533.9 512 533.9 582.9"/><path d="M 5 87.5 167.5 87.5 167.5 -2.5 5 -2.5 5 87.5"/><path d="M 5 802.5 110 802.5 110 647.5 5 647.5 5 802.5"/><path d="M 292.5 805 367.5 805 367.5 750 292.5 750 292.5 805"/><path d="M 392.3 804.8 467.3 804.8 467.3 749.8 392.3 749.8 392.3 804.8"/><path d="M 492.5 804.8 567.5 804.8 567.5 749.8 492.5 749.8 492.5 804.8"/><path d="M 593.3 804.7 668.3 804.7 668.3 749.7 593.3 749.7 593.3 804.7"/><path d="M 692.5 805 767.5 805 767.5 750 692.5 750 692.5 805"/><path d="M 292.5 50 367.5 50 367.5 -5 292.5 -5 292.5 50"/><path d="M 392.5 50 467.5 50 467.5 -5 392.5 -5 392.5 50"/><path d="M 492.5 50 567.5 50 567.5 -5 492.5 -5 492.5 50"/><path d="M 592.5 50 667.5 50 667.5 -5 592.5 -5 592.5 50"/><path d="M 692.5 50 767.5 50 767.5 -5 692.5 -5 692.5 50"/><use xlink:href="#QuwQzW9WGPVUunrVy_XF_pad-19" x="330" y="750"/><use xlink:href="#QuwQzW9WGPVUunrVy_XF_pad-19" x="430" y="750"/><use xlink:href="#QuwQzW9WGPVUunrVy_XF_pad-19" x="530" y="750"/><use xlink:href="#QuwQzW9WGPVUunrVy_XF_pad-19" x="630" y="750"/><use xlink:href="#QuwQzW9WGPVUunrVy_XF_pad-19" x="730" y="750"/><use xlink:href="#QuwQzW9WGPVUunrVy_XF_pad-19" x="330" y="50"/><use xlink:href="#QuwQzW9WGPVUunrVy_XF_pad-19" x="430" y="50"/><use xlink:href="#QuwQzW9WGPVUunrVy_XF_pad-19" x="530" y="50"/><use xlink:href="#QuwQzW9WGPVUunrVy_XF_pad-19" x="630" y="50"/><use xlink:href="#QuwQzW9WGPVUunrVy_XF_pad-19" x="730" y="50"/><use xlink:href="#QuwQzW9WGPVUunrVy_XF_pad-19" x="57.5" y="150"/><use xlink:href="#QuwQzW9WGPVUunrVy_XF_pad-19" x="57.5" y="250"/><use xlink:href="#QuwQzW9WGPVUunrVy_XF_pad-19" x="57.5" y="350"/><use xlink:href="#QuwQzW9WGPVUunrVy_XF_pad-19" x="57.5" y="450"/><use xlink:href="#QuwQzW9WGPVUunrVy_XF_pad-19" x="57.5" y="550"/><use xlink:href="#QuwQzW9WGPVUunrVy_XF_pad-14" x="185" y="290"/><use xlink:href="#QuwQzW9WGPVUunrVy_XF_pad-14" x="342.5" y="162.5"/><use xlink:href="#QuwQzW9WGPVUunrVy_XF_pad-14" x="700" y="652.5"/><use xlink:href="#QuwQzW9WGPVUunrVy_XF_pad-14" x="405" y="652.5"/><use xlink:href="#QuwQzW9WGPVUunrVy_XF_pad-14" x="757.5" y="162.5"/><use xlink:href="#QuwQzW9WGPVUunrVy_XF_pad-14" x="462.5" y="162.5"/><use xlink:href="#QuwQzW9WGPVUunrVy_XF_pad-14" x="402.5" y="162.5"/><use xlink:href="#QuwQzW9WGPVUunrVy_XF_pad-14" x="582.5" y="162.5"/><use xlink:href="#QuwQzW9WGPVUunrVy_XF_pad-14" x="820" y="162.5"/><use xlink:href="#QuwQzW9WGPVUunrVy_XF_pad-14" x="370" y="355"/><use xlink:href="#QuwQzW9WGPVUunrVy_XF_pad-14" x="210" y="395"/><use xlink:href="#QuwQzW9WGPVUunrVy_XF_pad-14" x="60" y="715"/><use xlink:href="#QuwQzW9WGPVUunrVy_XF_pad-14" x="60" y="675"/><use xlink:href="#QuwQzW9WGPVUunrVy_XF_pad-14" x="190" y="642.5"/><use xlink:href="#QuwQzW9WGPVUunrVy_XF_pad-14" x="122.5" y="45"/><use xlink:href="#QuwQzW9WGPVUunrVy_XF_pad-14" x="55" y="45"/><use xlink:href="#QuwQzW9WGPVUunrVy_XF_pad-14" x="295" y="162.5"/><use xlink:href="#QuwQzW9WGPVUunrVy_XF_pad-14" x="522.5" y="162.5"/></g><g id="dRuYs_VOfxOShmXWoYRb_bottom_solderpaste"><path d="M 531 472.8 531 427.1 588.9 427.1 588.9 472.8 531 472.8"/><path d="M 531 392.8 531 347.1 588.9 347.1 588.9 392.8 531 392.8"/><path d="M 626 572.8 626 527.1 683.9 527.1 683.9 572.8 626 572.8"/><path d="M 626 492.8 626 447.1 683.9 447.1 683.9 492.8 626 492.8"/><path d="M 626 377.8 626 332.1 683.9 332.1 683.9 377.8 626 377.8"/><path d="M 626 297.8 626 252.1 683.9 252.1 683.9 297.8 626 297.8"/><path d="M 436.1 377.8 436.1 332.1 493.9 332.1 493.9 377.8 436.1 377.8"/><path d="M 436.1 297.8 436.1 252.1 493.9 252.1 493.9 297.8 436.1 297.8"/><path d="M 341.1 377.8 341.1 332.1 398.8 332.1 398.8 377.8 341.1 377.8"/><path d="M 341.1 297.8 341.1 252.1 398.8 252.1 398.8 297.8 341.1 297.8"/><path d="M 381.1 572.8 381.1 527.1 438.8 527.1 438.8 572.8 381.1 572.8"/><path d="M 381.1 492.8 381.1 447.1 438.8 447.1 438.8 492.8 381.1 492.8"/><path d="M 784.5 381.1 784.5 416.6 725.4 416.6 725.4 381.1 784.5 381.1"/><path d="M 784.5 243.3 784.5 278.8 725.4 278.8 725.4 243.3 784.5 243.3"/><path d="M 156.1 242.8 156.1 197.1 213.8 197.1 213.8 242.8 156.1 242.8"/><path d="M 156.1 162.8 156.1 117.1 213.8 117.1 213.8 162.8 156.1 162.8"/><path d="M 721 572.8 721 527.1 778.9 527.1 778.9 572.8 721 572.8"/><path d="M 721 492.8 721 447.1 778.9 447.1 778.9 492.8 721 492.8"/><path d="M 533.9 582.9 471 582.9 471 512 533.9 512 533.9 582.9"/></g><g id="dRuYs_VOfxOShmXWoYRb_bottom_soldermask"><path d="M 527.1 423.2 527.1 476.7 592.8 476.7 592.8 423.2 527.1 423.2"/><path d="M 527.1 343.2 527.1 396.7 592.8 396.7 592.8 343.2 527.1 343.2"/><path d="M 622.1 523.2 622.1 576.7 687.8 576.7 687.8 523.2 622.1 523.2"/><path d="M 622.1 443.2 622.1 496.7 687.8 496.7 687.8 443.2 622.1 443.2"/><path d="M 622.1 328.2 622.1 381.7 687.8 381.7 687.8 328.2 622.1 328.2"/><path d="M 622.1 248.2 622.1 301.7 687.8 301.7 687.8 248.2 622.1 248.2"/><path d="M 432.1 328.2 432.1 381.7 497.8 381.7 497.8 328.2 432.1 328.2"/><path d="M 432.1 248.2 432.1 301.7 497.8 301.7 497.8 248.2 432.1 248.2"/><path d="M 337.1 328.2 337.1 381.7 402.8 381.7 402.8 328.2 337.1 328.2"/><path d="M 337.1 248.2 337.1 301.7 402.8 301.7 402.8 248.2 337.1 248.2"/><path d="M 377.1 523.2 377.1 576.7 442.8 576.7 442.8 523.2 377.1 523.2"/><path d="M 377.1 443.2 377.1 496.7 442.8 496.7 442.8 443.2 377.1 443.2"/><path d="M 721.4 377.1 721.4 420.5 788.5 420.5 788.5 377.1 721.4 377.1"/><path d="M 721.4 239.4 721.4 282.8 788.5 282.8 788.5 239.4 721.4 239.4"/><path d="M 152.1 193.2 152.1 246.7 217.8 246.7 217.8 193.2 152.1 193.2"/><path d="M 152.1 113.2 152.1 166.7 217.8 166.7 217.8 113.2 152.1 113.2"/><path d="M 717.1 523.2 717.1 576.7 782.8 576.7 782.8 523.2 717.1 523.2"/><path d="M 717.1 443.2 717.1 496.7 782.8 496.7 782.8 443.2 717.1 443.2"/><use xlink:href="#bq-TDK9k1LMLpJjsUmDn_pad-32" x="330" y="750"/><use xlink:href="#bq-TDK9k1LMLpJjsUmDn_pad-32" x="430" y="750"/><use xlink:href="#bq-TDK9k1LMLpJjsUmDn_pad-32" x="530" y="750"/><use xlink:href="#bq-TDK9k1LMLpJjsUmDn_pad-32" x="630" y="750"/><use xlink:href="#bq-TDK9k1LMLpJjsUmDn_pad-32" x="730" y="750"/><use xlink:href="#bq-TDK9k1LMLpJjsUmDn_pad-32" x="330" y="50"/><use xlink:href="#bq-TDK9k1LMLpJjsUmDn_pad-32" x="430" y="50"/><use xlink:href="#bq-TDK9k1LMLpJjsUmDn_pad-32" x="530" y="50"/><use xlink:href="#bq-TDK9k1LMLpJjsUmDn_pad-32" x="630" y="50"/><use xlink:href="#bq-TDK9k1LMLpJjsUmDn_pad-32" x="730" y="50"/><use xlink:href="#bq-TDK9k1LMLpJjsUmDn_pad-32" x="57.5" y="150"/><use xlink:href="#bq-TDK9k1LMLpJjsUmDn_pad-32" x="57.5" y="250"/><use xlink:href="#bq-TDK9k1LMLpJjsUmDn_pad-32" x="57.5" y="350"/><use xlink:href="#bq-TDK9k1LMLpJjsUmDn_pad-32" x="57.5" y="450"/><use xlink:href="#bq-TDK9k1LMLpJjsUmDn_pad-32" x="57.5" y="550"/><path d="M 466.9 508 466.9 586.9 538 586.9 538 508 466.9 508"/><path d="M 2.5 90 170 90 170 -5 2.5 -5 2.5 90"/><path d="M 2.5 805 112.5 805 112.5 645 2.5 645 2.5 805"/><path d="M 290 50 370 50 370 -5 290 -5 290 50"/><path d="M 390 50 470 50 470 -5 390 -5 390 50"/><path d="M 490 50 570 50 570 -5 490 -5 490 50"/><path d="M 590 50 670 50 670 -5 590 -5 590 50"/><path d="M 690 50 770 50 770 -5 690 -5 690 50"/><path d="M 290 805 370 805 370 750 290 750 290 805"/><path d="M 390 805 470 805 470 750 390 750 390 805"/><path d="M 590 805 670 805 670 750 590 750 590 805"/><path d="M 690 805 770 805 770 750 690 750 690 805"/><path d="M 490 805 570 805 570 750 490 750 490 805"/></g><g id="dRuYs_VOfxOShmXWoYRb_bottom_drill1"><use xlink:href="#Iuei8qnMiVP4nGLohRj-_pad-1" x="897.5" y="732.5"/><use xlink:href="#Iuei8qnMiVP4nGLohRj-_pad-1" x="895" y="65"/></g><g id="dRuYs_VOfxOShmXWoYRb_bottom_drill2"><use xlink:href="#sPzsNYhzyNIth3kAeZhu_pad-1" x="185" y="290"/><use xlink:href="#sPzsNYhzyNIth3kAeZhu_pad-1" x="342.5" y="162.5"/><use xlink:href="#sPzsNYhzyNIth3kAeZhu_pad-1" x="700" y="652.5"/><use xlink:href="#sPzsNYhzyNIth3kAeZhu_pad-1" x="405" y="652.5"/><use xlink:href="#sPzsNYhzyNIth3kAeZhu_pad-1" x="757.5" y="162.5"/><use xlink:href="#sPzsNYhzyNIth3kAeZhu_pad-1" x="462.5" y="162.5"/><use xlink:href="#sPzsNYhzyNIth3kAeZhu_pad-1" x="402.5" y="162.5"/><use xlink:href="#sPzsNYhzyNIth3kAeZhu_pad-1" x="582.5" y="162.5"/><use xlink:href="#sPzsNYhzyNIth3kAeZhu_pad-1" x="820" y="162.5"/><use xlink:href="#sPzsNYhzyNIth3kAeZhu_pad-1" x="370" y="355"/><use xlink:href="#sPzsNYhzyNIth3kAeZhu_pad-1" x="210" y="395"/><use xlink:href="#sPzsNYhzyNIth3kAeZhu_pad-1" x="60" y="715"/><use xlink:href="#sPzsNYhzyNIth3kAeZhu_pad-1" x="60" y="675"/><use xlink:href="#sPzsNYhzyNIth3kAeZhu_pad-1" x="190" y="642.5"/><use xlink:href="#sPzsNYhzyNIth3kAeZhu_pad-1" x="122.5" y="45"/><use xlink:href="#sPzsNYhzyNIth3kAeZhu_pad-1" x="55" y="45"/><use xlink:href="#sPzsNYhzyNIth3kAeZhu_pad-1" x="295" y="162.5"/><use xlink:href="#sPzsNYhzyNIth3kAeZhu_pad-1" x="522.5" y="162.5"/><use xlink:href="#sPzsNYhzyNIth3kAeZhu_pad-2" x="330" y="750"/><use xlink:href="#sPzsNYhzyNIth3kAeZhu_pad-2" x="430" y="750"/><use xlink:href="#sPzsNYhzyNIth3kAeZhu_pad-2" x="530" y="750"/><use xlink:href="#sPzsNYhzyNIth3kAeZhu_pad-2" x="630" y="750"/><use xlink:href="#sPzsNYhzyNIth3kAeZhu_pad-2" x="730" y="750"/><use xlink:href="#sPzsNYhzyNIth3kAeZhu_pad-2" x="330" y="50"/><use xlink:href="#sPzsNYhzyNIth3kAeZhu_pad-2" x="430" y="50"/><use xlink:href="#sPzsNYhzyNIth3kAeZhu_pad-2" x="530" y="50"/><use xlink:href="#sPzsNYhzyNIth3kAeZhu_pad-2" x="630" y="50"/><use xlink:href="#sPzsNYhzyNIth3kAeZhu_pad-2" x="730" y="50"/><use xlink:href="#sPzsNYhzyNIth3kAeZhu_pad-2" x="57.5" y="150"/><use xlink:href="#sPzsNYhzyNIth3kAeZhu_pad-2" x="57.5" y="250"/><use xlink:href="#sPzsNYhzyNIth3kAeZhu_pad-2" x="57.5" y="350"/><use xlink:href="#sPzsNYhzyNIth3kAeZhu_pad-2" x="57.5" y="450"/><use xlink:href="#sPzsNYhzyNIth3kAeZhu_pad-2" x="57.5" y="550"/></g><clipPath id="dRuYs_VOfxOShmXWoYRb_bottom_outline"><path d="M 0 800 0 800 7.5 800 7.5 0 1080 0 1080 800 0 800" fill="none" stroke-width="10"/></clipPath><mask id="dRuYs_VOfxOShmXWoYRb_bottom_mech-mask"><g fill="#000" stroke="#000"><rect x="0" y="0" width="1080" height="800" fill="#fff"/><use xlink:href="#dRuYs_VOfxOShmXWoYRb_bottom_drill1"/><use xlink:href="#dRuYs_VOfxOShmXWoYRb_bottom_drill2"/></g></mask><mask id="dRuYs_VOfxOShmXWoYRb_bottom_cf-mask"><g fill="#fff" stroke="#fff"><use xlink:href="#dRuYs_VOfxOShmXWoYRb_bottom_soldermask"/></g></mask><mask id="dRuYs_VOfxOShmXWoYRb_bottom_sm-mask"><g fill="#000" stroke="#000"><rect x="0" y="0" width="1080" height="800" fill="#fff"/><use xlink:href="#dRuYs_VOfxOShmXWoYRb_bottom_soldermask"/></g></mask></defs><g transform="translate(0,800) scale(1,-1)"><g mask="url(#dRuYs_VOfxOShmXWoYRb_bottom_mech-mask)" clip-path="url(#dRuYs_VOfxOShmXWoYRb_bottom_outline)" transform="translate(1080,0) scale(-1,1)"><rect x="0" y="0" width="1080" height="800" fill="currentColor" class="dRuYs_VOfxOShmXWoYRb_fr4"/><use xlink:href="#dRuYs_VOfxOShmXWoYRb_bottom_copper" fill="currentColor" stroke="currentColor" class="dRuYs_VOfxOShmXWoYRb_cu"/><use xlink:href="#dRuYs_VOfxOShmXWoYRb_bottom_copper" fill="currentColor" stroke="currentColor" class="dRuYs_VOfxOShmXWoYRb_cf" mask="url(#dRuYs_VOfxOShmXWoYRb_bottom_cf-mask)"/><g mask="url(#dRuYs_VOfxOShmXWoYRb_bottom_sm-mask)"><rect x="0" y="0" width="1080" height="800" fill="currentColor" class="dRuYs_VOfxOShmXWoYRb_sm"/><use xlink:href="#dRuYs_VOfxOShmXWoYRb_bottom_silkscreen" fill="currentColor" stroke="currentColor" class="dRuYs_VOfxOShmXWoYRb_ss"/></g><use xlink:href="#dRuYs_VOfxOShmXWoYRb_bottom_solderpaste" fill="currentColor" stroke="currentColor" class="dRuYs_VOfxOShmXWoYRb_sp"/></g></g></svg>