<svg version="1.1" xmlns="http://www.w3.org/2000/svg" xmlns:xlink="http://www.w3.org/1999/xlink" stroke-linecap="round" stroke-linejoin="round" stroke-width="0" fill-rule="evenodd" clip-rule="evenodd" id="dRuYs_VOfxOShmXWoYRb_top" viewBox="0 0 1080 800" width="1.08in" height="0.8in" class="w-100 h-100"><defs><style>.dRuYs_VOfxOShmXWoYRb_fr4 {color: #666666;}
.dRuYs_VOfxOShmXWoYRb_cu {color: #cccccc;}
.dRuYs_VOfxOShmXWoYRb_cf {color: #cc9933;}
.dRuYs_VOfxOShmXWoYRb_sm {color: #004200; opacity: 0.75;}
.dRuYs_VOfxOShmXWoYRb_ss {color: #ffffff;}
.dRuYs_VOfxOShmXWoYRb_sp {color: #999999;}
.dRuYs_VOfxOShmXWoYRb_out {color: #000000;}</style><rect x="-34" y="-14.85" width="68" height="29.7" id="DCm0Cj4sZloYsLR3-ogR_pad-30"/><circle cx="0" cy="0" r="41.5" id="DCm0Cj4sZloYsLR3-ogR_pad-32"/><rect x="-30" y="-10.85" width="60" height="21.7" id="LNoMsRSAycem2Q4LWpcy_pad-15"/><rect x="-52.5" y="-47.5" width="105" height="95" id="LNoMsRSAycem2Q4LWpcy_pad-16"/><rect x="-19" y="-35.433" width="38" height="70.866" id="LNoMsRSAycem2Q4LWpcy_pad-17"/><rect x="-19" y="-35.43" width="38" height="70.86" id="LNoMsRSAycem2Q4LWpcy_pad-18"/><rect x="-30" y="-10.85" width="60" height="21.7" id="fA8xEWVfnaQmWUT1r8nX_pad-15"/><rect x="-52.5" y="-47.5" width="105" height="95" id="fA8xEWVfnaQmWUT1r8nX_pad-16"/><rect x="-19" y="-35.433" width="38" height="70.866" id="fA8xEWVfnaQmWUT1r8nX_pad-17"/><rect x="-19" y="-35.43" width="38" height="70.86" id="fA8xEWVfnaQmWUT1r8nX_pad-18"/><circle cx="0" cy="0" r="37.5" id="fA8xEWVfnaQmWUT1r8nX_pad-19"/><circle cx="0" cy="0" r="12" id="fA8xEWVfnaQmWUT1r8nX_pad-14"/><circle cx="0" cy="0" r="39.5" id="Iuei8qnMiVP4nGLohRj-_pad-1"/><circle cx="0" cy="0" r="6" id="sPzsNYhzyNIth3kAeZhu_pad-1"/><circle cx="0" cy="0" r="16" id="sPzsNYhzyNIth3kAeZhu_pad-2"/><g id="dRuYs_VOfxOShmXWoYRb_top_soldermask"><use xlink:href="#DCm0Cj4sZloYsLR3-ogR_pad-30" x="140" y="749.9"/><use xlink:href="#DCm0Cj4sZloYsLR3-ogR_pad-30" x="140" y="712.9"/><use xlink:href="#DCm0Cj4sZloYsLR3-ogR_pad-30" x="140" y="675.9"/><use xlink:href="#DCm0Cj4sZloYsLR3-ogR_pad-30" x="241.9" y="675.9"/><use xlink:href="#DCm0Cj4sZloYsLR3-ogR_pad-30" x="241.9" y="749.9"/><path d="M 153.4 320.9 153.4 424 266.5 424 266.5 320.9 153.4 320.9"/><path d="M 153.4 505.9 153.4 609 266.5 609 266.5 505.9 153.4 505.9"/><use xlink:href="#DCm0Cj4sZloYsLR3-ogR_pad-32" x="330" y="750"/><use xlink:href="#DCm0Cj4sZloYsLR3-ogR_pad-32" x="430" y="750"/><use xlink:href="#DCm0Cj4sZloYsLR3-ogR_pad-32" x="530" y="750"/><use xlink:href="#DCm0Cj4sZloYsLR3-ogR_pad-32" x="630" y="750"/><use xlink:href="#DCm0Cj4sZloYsLR3-ogR_pad-32" x="730" y="750"/><use xlink:href="#DCm0Cj4sZloYsLR3-ogR_pad-32" x="330" y="50"/><use xlink:href="#DCm0Cj4sZloYsLR3-ogR_pad-32" x="430" y="50"/><use xlink:href="#DCm0Cj4sZloYsLR3-ogR_pad-32" x="530" y="50"/><use xlink:href="#DCm0Cj4sZloYsLR3-ogR_pad-32" x="630" y="50"/><use xlink:href="#DCm0Cj4sZloYsLR3-ogR_pad-32" x="730" y="50"/><use xlink:href="#DCm0Cj4sZloYsLR3-ogR_pad-32" x="57.5" y="150"/><use xlink:href="#DCm0Cj4sZloYsLR3-ogR_pad-32" x="57.5" y="250"/><use xlink:href="#DCm0Cj4sZloYsLR3-ogR_pad-32" x="57.5" y="350"/><use xlink:href="#DCm0Cj4sZloYsLR3-ogR_pad-32" x="57.5" y="450"/><use xlink:href="#DCm0Cj4sZloYsLR3-ogR_pad-32" x="57.5" y="550"/><path d="M 321.5 611.5 321.5 690.5 367.5 690.5 367.5 611.5 321.5 611.5"/><path d="M 379.4 611.3 379.4 690.1 425.5 690.1 425.5 611.3 379.4 611.3"/><path d="M 440.3 611.9 440.3 690.9 486.3 690.9 486.3 611.9 440.3 611.9"/><path d="M 499.2 612.3 499.2 691.3 545.2 691.3 545.2 612.3 499.2 612.3"/><path d="M 557.2 611.3 557.2 690.1 603.1 690.1 603.1 611.3 557.2 611.3"/><path d="M 616 611.3 616 690.1 661.9 690.1 661.9 611.3 616 611.3"/><path d="M 676.8 612.8 676.8 691.5 722.7 691.5 722.7 612.8 676.8 612.8"/><path d="M 734.7 120 734.7 198.8 780.7 198.8 780.7 120 734.7 120"/><path d="M 615.9 119.4 615.9 198.2 661.8 198.2 661.8 119.4 615.9 119.4"/><path d="M 557.5 120.1 557.5 199 603.5 199 603.5 120.1 557.5 120.1"/><path d="M 675.6 119.6 675.6 198.4 721.7 198.4 721.7 119.6 675.6 119.6"/><path d="M 498.5 120.5 498.5 199.4 544.4 199.4 544.4 120.5 498.5 120.5"/><path d="M 439.4 119.8 439.4 198.6 485.3 198.6 485.3 119.8 439.4 119.8"/><path d="M 380.1 119.4 380.1 198.4 426.1 198.4 426.1 119.4 380.1 119.4"/><path d="M 321.3 119.6 321.3 198.4 367.3 198.4 367.3 119.6 321.3 119.6"/><path d="M 795.7 119.8 795.7 198.8 841.8 198.8 841.8 119.8 795.7 119.8"/><path d="M 2.5 805 90 805 90 645 2.5 645 2.5 805"/><path d="M 2.5 90 170 90 170 -5 2.5 -5 2.5 90"/><path d="M 290 805 370 805 370 750 290 750 290 805"/><path d="M 390 805 470 805 470 750 390 750 390 805"/><path d="M 490 805 570 805 570 750 490 750 490 805"/><path d="M 590 805 670 805 670 750 590 750 590 805"/><path d="M 690 805 770 805 770 750 690 750 690 805"/><path d="M 290 50 370 50 370 -5 290 -5 290 50"/><path d="M 390 50 470 50 470 -5 390 -5 390 50"/><path d="M 490 50 570 50 570 -5 490 -5 490 50"/><path d="M 590 50 670 50 670 -5 590 -5 590 50"/><path d="M 690 50 770 50 770 -5 690 -5 690 50"/></g><g id="dRuYs_VOfxOShmXWoYRb_top_silkscreen"><path d="M 223 660.9 223 656.9 159 656.9 159 660.9 M 159 765 159 769 223 769 223 765 M 223 734 223 691.9 M 159 730 159 734 M 159 691.9 159 695.9" fill="none" stroke-width="10"/><path d="M 275.9 629 146.9 629" fill="none" stroke-width="13"/><path d="M 145 493.4 145 615 275.9 615 275.9 493.4 M 275.9 446.9 275.9 314 143 314 143 446.9" fill="none" stroke-width="10"/><path d="M 290.9 642.7 290.9 158.9 1078.6 158.9 1078.6 651 290.9 651 290.9 642.7" fill="none" stroke-width="3.937"/><path d="M 831 599.8 831 211.3 326.7 211.3 326.3 600.2 830.2 600.6" fill="none" stroke-width="4"/><path d="M 855.4 249.8 855.4 621.1 1055.8 621.1 1055.8 573.5 1054.6 572.3 893.2 572.3 892.8 527 1055.8 527 1055.8 474.2 892.4 474.2 892.8 425.4 1055.8 425.4 1055.8 375.4 892.8 375.4 893.2 327.4 1056.2 327.8 1056.2 185.3" fill="none" stroke-width="7.874"/><path d="M 197.1 60 199.2 60.9 201.1 63 202.1 65 202.1 69 201.1 70.9 199.2 73 197.1 74 194.2 75 189.2 75 186.1 74 184.2 73 182.1 70.9 181.1 69 181.1 65 182.1 63 184.2 60.9 186.1 60 189.2 60 M 189.2 65 189.2 60 M 202.1 53.4 181.1 53.4 M 202.1 53.4 181.1 39.4 M 202.1 39.4 181.1 39.4 M 202.1 32.8 181.1 32.8 M 202.1 32.8 202.1 25.7 201.1 22.8 199.2 20.7 197.1 19.8 194.2 18.8 189.2 18.8 186.1 19.8 184.2 20.7 182.1 22.8 181.1 25.7 181.1 32.8 M 15 637.1 23 616.1 M 30.9 637.1 23 616.1 M 52.6 632.1 51.5 634.2 49.6 636.1 47.6 637.1 43.6 637.1 41.5 636.1 39.6 634.2 38.6 632.1 37.6 629.2 37.6 624.2 38.6 621.1 39.6 619.2 41.5 617.1 43.6 616.1 47.6 616.1 49.6 617.1 51.5 619.2 52.6 621.1 M 74.2 632.1 73.2 634.2 71.1 636.1 69.2 637.1 65.1 637.1 63.2 636.1 61.1 634.2 60.1 632.1 59.2 629.2 59.2 624.2 60.1 621.1 61.1 619.2 63.2 617.1 65.1 616.1 69.2 616.1 71.1 617.1 73.2 619.2 74.2 621.1 M 254.4 215.5 256.7 216.5 259 218.8 260.1 221.1 260.1 225.7 259 228 256.7 230.1 254.4 231.3 251.1 232.5 245.5 232.5 241.9 231.3 239.8 230.1 237.5 228 236.3 225.7 236.3 221.1 237.5 218.8 239.8 216.5 241.9 215.5 245.5 215.5 M 245.5 221.1 245.5 215.5 M 260.1 194.2 236.3 194.2 M 248.8 194.2 251.1 196.5 252.3 198.8 252.3 202.3 251.1 204.4 248.8 206.7 245.5 208 243.2 208 239.8 206.7 237.5 204.4 236.3 202.3 236.3 198.8 237.5 196.5 239.8 194.2 M 260.1 186.7 236.3 186.7 M 260.1 186.7 260.1 176.5 259 173.2 258 171.9 255.7 170.9 252.3 170.9 250 171.9 248.8 173.2 247.6 176.5 247.6 186.7 M 254.4 144.8 255.7 144.8 258 143.6 259 142.5 260.1 140.1 260.1 135.7 259 133.4 258 132.3 255.7 131.1 253.4 131.1 251.1 132.3 247.6 134.4 236.3 145.9 236.3 130 M 260.1 115.7 259 119 255.7 121.3 250 122.5 246.5 122.5 240.9 121.3 237.5 119 236.3 115.7 236.3 113.4 237.5 110 240.9 107.6 246.5 106.5 250 106.5 255.7 107.6 259 110 260.1 113.4 260.1 115.7 M 254.4 98 255.7 98 258 96.7 259 95.7 260.1 93.4 260.1 88.8 259 86.5 258 85.5 255.7 84.2 253.4 84.2 251.1 85.5 247.6 87.6 236.3 99 236.3 83.2 M 260.1 68.8 259 72.3 255.7 74.4 250 75.7 246.5 75.7 240.9 74.4 237.5 72.3 236.3 68.8 236.3 66.5 237.5 63.2 240.9 60.9 246.5 59.8 250 59.8 255.7 60.9 259 63.2 260.1 66.5 260.1 68.8 M 105 652.1 105 631.1 M 126.5 647.1 125.5 649.2 123.6 651.1 121.5 652.1 117.6 652.1 115.5 651.1 113.6 649.2 112.6 647.1 111.5 644.2 111.5 639.2 112.6 636.1 113.6 634.2 115.5 632.1 117.6 631.1 121.5 631.1 123.6 632.1 125.5 634.2 126.5 636.1 M 133.2 648.2 135.1 649.2 138.2 652.1 138.2 631.1" fill="none" stroke-width="4"/><path d="M 251.9 294.4 250.9 296.7 248.6 299 246.3 300.1 241.7 300.1 239.4 299 237.3 296.7 236.1 294.4 235 291.1 235 285.5 236.1 281.9 237.3 279.8 239.4 277.5 241.7 276.3 246.3 276.3 248.6 277.5 250.9 279.8 251.9 281.9 M 259.4 295.7 261.7 296.7 265.1 300.1 265.1 276.3" fill="none" stroke-width="5"/><path d="M 1140.3 415 1109.7 415 1103.5 413 1099.4 408.8 1097.5 402.6 1097.5 398.6 1099.4 392.5 1103.5 388.4 1109.7 386.3 1140.3 386.3 M 1140.3 368.8 1140.3 346.3 1123.9 358.4 1123.9 352.3 1121.9 348.2 1120 346.3 1113.8 344.2 1109.7 344.2 1103.5 346.3 1099.4 350.3 1097.5 356.5 1097.5 362.6 1099.4 368.8 1101.4 370.7 1105.6 372.8" fill="none" stroke-width="6"/><path d="M 727.1 567.1 670.7 567.1 M 727.1 567.1 727.1 532.3 M 700.3 567.1 700.3 545.7 M 670.7 567.1 670.7 532.3 M 719.1 476.9 724.4 482.3 727.1 490.3 727.1 501.1 724.4 509.2 719.1 514.6 713.7 514.6 708.3 511.9 705.6 509.2 703 503.8 697.6 487.6 694.9 482.3 692.2 479.6 686.8 476.9 678.8 476.9 673.4 482.3 670.7 490.3 670.7 501.1 673.4 509.2 678.8 514.6 M 727.1 459.2 670.7 459.2 M 727.1 459.2 727.1 435.1 724.4 427.1 721.7 424.4 716.4 421.7 708.3 421.7 703 424.4 700.3 427.1 697.6 435.1 697.6 459.2 M 694.9 404 694.9 355.7 M 727.1 338 670.7 338 M 727.1 338 670.7 316.5 M 727.1 295 670.7 316.5 M 727.1 295 670.7 295 M 713.7 274.6 716.4 274.6 721.7 271.9 724.4 269.2 727.1 263.8 727.1 253 724.4 247.8 721.7 245.1 716.4 242.3 711 242.3 705.6 245.1 697.6 250.5 670.7 277.3 670.7 239.6" fill="none" stroke-width="8"/></g><g id="dRuYs_VOfxOShmXWoYRb_top_solderpaste"><use xlink:href="#LNoMsRSAycem2Q4LWpcy_pad-15" x="140" y="749.9"/><use xlink:href="#LNoMsRSAycem2Q4LWpcy_pad-15" x="140" y="712.9"/><use xlink:href="#LNoMsRSAycem2Q4LWpcy_pad-15" x="140" y="675.9"/><use xlink:href="#LNoMsRSAycem2Q4LWpcy_pad-15" x="241.9" y="675.9"/><use xlink:href="#LNoMsRSAycem2Q4LWpcy_pad-15" x="241.9" y="749.9"/><use xlink:href="#LNoMsRSAycem2Q4LWpcy_pad-16" x="210" y="372.4"/><use xlink:href="#LNoMsRSAycem2Q4LWpcy_pad-16" x="210" y="557.5"/><use xlink:href="#LNoMsRSAycem2Q4LWpcy_pad-17" x="344.4" y="651"/><use xlink:href="#LNoMsRSAycem2Q4LWpcy_pad-18" x="402.4" y="650.7"/><use xlink:href="#LNoMsRSAycem2Q4LWpcy_pad-18" x="463.3" y="651.4"/><use xlink:href="#LNoMsRSAycem2Q4LWpcy_pad-18" x="522.1" y="651.8"/><use xlink:href="#LNoMsRSAycem2Q4LWpcy_pad-18" x="580.2" y="650.8"/><use xlink:href="#LNoMsRSAycem2Q4LWpcy_pad-18" x="639" y="650.8"/><use xlink:href="#LNoMsRSAycem2Q4LWpcy_pad-18" x="699.7" y="652.2"/><use xlink:href="#LNoMsRSAycem2Q4LWpcy_pad-18" x="757.7" y="159.4"/><use xlink:href="#LNoMsRSAycem2Q4LWpcy_pad-18" x="638.9" y="158.8"/><use xlink:href="#LNoMsRSAycem2Q4LWpcy_pad-18" x="580.4" y="159.6"/><use xlink:href="#LNoMsRSAycem2Q4LWpcy_pad-18" x="698.6" y="159"/><use xlink:href="#LNoMsRSAycem2Q4LWpcy_pad-18" x="521.4" y="159.9"/><use xlink:href="#LNoMsRSAycem2Q4LWpcy_pad-18" x="462.4" y="159.2"/><use xlink:href="#LNoMsRSAycem2Q4LWpcy_pad-18" x="403.1" y="158.9"/><use xlink:href="#LNoMsRSAycem2Q4LWpcy_pad-18" x="344.3" y="159"/><use xlink:href="#LNoMsRSAycem2Q4LWpcy_pad-18" x="818.8" y="159.3"/></g><g id="dRuYs_VOfxOShmXWoYRb_top_copper"><path d="M 638.9 158.8 638.9 223.5 617.5 245 150 245 115 280 115 400 65 450 57.5 450" fill="none" stroke-width="10"/><path d="M 140 749.9 60 749.9 60 715 60 675 60.9 675.9 140 675.9 M 345 570 345 380 370 355" fill="none" stroke-width="20"/><path d="M 345 570 265 570 252.5 557.5 210 557.5 M 330 750 270 750 269.9 749.9 241.9 749.9" fill="none" stroke-width="25"/><path d="M 190 642.5 190 712.9 140 712.9" fill="none" stroke-width="15"/><path d="M 57.5 150 57.5 87.5 57.5 80" fill="none" stroke-width="25"/><path d="M 57.5 250 105 250 130 225 445 225 462.4 207.5 462.4 159.2 M 185 290 213.7 290 218.7 285 702.5 285 757.7 229.7 757.7 159.4 M 523.9 653.6 523.9 743.9 530 750 M 57.5 550 135 477.5 135 295 165 265 655 265 698.6 221.3 698.6 159" fill="none" stroke-width="10"/><path d="M 345 570 345 652.8 346.1 652.8 346.1 733.8 330 750" fill="none" stroke-width="25"/><path d="M 581.9 652.6 581.9 691.9 630 740 630 750" fill="none" stroke-width="10"/><path d="M 57.5 150 282.5 150 295 162.5 342.5 162.5" fill="none" stroke-width="25"/><path d="M 344.3 159 344.3 125.6 420 50 430 50" fill="none" stroke-width="20"/><path d="M 640.7 652.5 640.7 595.7 615 570 375 570 345 570 344.3 651.1 M 465 652.5 465 700 430 750 430 750" fill="none" stroke-width="10"/><use xlink:href="#fA8xEWVfnaQmWUT1r8nX_pad-15" x="140" y="749.9"/><use xlink:href="#fA8xEWVfnaQmWUT1r8nX_pad-15" x="140" y="712.9"/><use xlink:href="#fA8xEWVfnaQmWUT1r8nX_pad-15" x="140" y="675.9"/><use xlink:href="#fA8xEWVfnaQmWUT1r8nX_pad-15" x="241.9" y="675.9"/><use xlink:href="#fA8xEWVfnaQmWUT1r8nX_pad-15" x="241.9" y="749.9"/><use xlink:href="#fA8xEWVfnaQmWUT1r8nX_pad-16" x="210" y="372.4"/><use xlink:href="#fA8xEWVfnaQmWUT1r8nX_pad-16" x="210" y="557.5"/><use xlink:href="#fA8xEWVfnaQmWUT1r8nX_pad-17" x="344.4" y="651"/><use xlink:href="#fA8xEWVfnaQmWUT1r8nX_pad-18" x="402.4" y="650.7"/><use xlink:href="#fA8xEWVfnaQmWUT1r8nX_pad-18" x="463.3" y="651.4"/><use xlink:href="#fA8xEWVfnaQmWUT1r8nX_pad-18" x="522.1" y="651.8"/><use xlink:href="#fA8xEWVfnaQmWUT1r8nX_pad-18" x="580.2" y="650.8"/><use xlink:href="#fA8xEWVfnaQmWUT1r8nX_pad-18" x="639" y="650.8"/><use xlink:href="#fA8xEWVfnaQmWUT1r8nX_pad-18" x="699.7" y="652.2"/><use xlink:href="#fA8xEWVfnaQmWUT1r8nX_pad-18" x="757.7" y="159.4"/><use xlink:href="#fA8xEWVfnaQmWUT1r8nX_pad-18" x="638.9" y="158.8"/><use xlink:href="#fA8xEWVfnaQmWUT1r8nX_pad-18" x="580.4" y="159.6"/><use xlink:href="#fA8xEWVfnaQmWUT1r8nX_pad-18" x="698.6" y="159"/><use xlink:href="#fA8xEWVfnaQmWUT1r8nX_pad-18" x="521.4" y="159.9"/><use xlink:href="#fA8xEWVfnaQmWUT1r8nX_pad-18" x="462.4" y="159.2"/><use xlink:href="#fA8xEWVfnaQmWUT1r8nX_pad-18" x="403.1" y="158.9"/><use xlink:href="#fA8xEWVfnaQmWUT1r8nX_pad-18" x="344.3" y="159"/><use xlink:href="#fA8xEWVfnaQmWUT1r8nX_pad-18" x="818.8" y="159.3"/><path d="M 5 802.5 87.5 802.5 87.5 647.5 5 647.5 5 802.5"/><path d="M 5 87.5 167.5 87.5 167.5 -2.5 5 -2.5 5 87.5"/><path d="M 292.5 805 367.5 805 367.5 750 292.5 750 292.5 805"/><path d="M 392.5 805 467.5 805 467.5 750 392.5 750 392.5 805"/><path d="M 492.1 804.7 567.1 804.7 567.1 749.7 492.1 749.7 492.1 804.7"/><path d="M 592.8 804.6 667.8 804.6 667.8 749.6 592.8 749.6 592.8 804.6"/><path d="M 692.5 804.9 767.5 804.9 767.5 749.9 692.5 749.9 692.5 804.9"/><path d="M 292.5 50 367.5 50 367.5 -5 292.5 -5 292.5 50"/><path d="M 392.5 50 467.5 50 467.5 -5 392.5 -5 392.5 50"/><path d="M 492.5 50 567.5 50 567.5 -5 492.5 -5 492.5 50"/><path d="M 592.5 50 667.5 50 667.5 -5 592.5 -5 592.5 50"/><path d="M 692.5 50 767.5 50 767.5 -5 692.5 -5 692.5 50"/><use xlink:href="#fA8xEWVfnaQmWUT1r8nX_pad-19" x="330" y="750"/><use xlink:href="#fA8xEWVfnaQmWUT1r8nX_pad-19" x="430" y="750"/><use xlink:href="#fA8xEWVfnaQmWUT1r8nX_pad-19" x="530" y="750"/><use xlink:href="#fA8xEWVfnaQmWUT1r8nX_pad-19" x="630" y="750"/><use xlink:href="#fA8xEWVfnaQmWUT1r8nX_pad-19" x="730" y="750"/><use xlink:href="#fA8xEWVfnaQmWUT1r8nX_pad-19" x="330" y="50"/><use xlink:href="#fA8xEWVfnaQmWUT1r8nX_pad-19" x="430" y="50"/><use xlink:href="#fA8xEWVfnaQmWUT1r8nX_pad-19" x="530" y="50"/><use xlink:href="#fA8xEWVfnaQmWUT1r8nX_pad-19" x="630" y="50"/><use xlink:href="#fA8xEWVfnaQmWUT1r8nX_pad-19" x="730" y="50"/><use xlink:href="#fA8xEWVfnaQmWUT1r8nX_pad-19" x="57.5" y="150"/><use xlink:href="#fA8xEWVfnaQmWUT1r8nX_pad-19" x="57.5" y="250"/><use xlink:href="#fA8xEWVfnaQmWUT1r8nX_pad-19" x="57.5" y="350"/><use xlink:href="#fA8xEWVfnaQmWUT1r8nX_pad-19" x="57.5" y="450"/><use xlink:href="#fA8xEWVfnaQmWUT1r8nX_pad-19" x="57.5" y="550"/><use xlink:href="#fA8xEWVfnaQmWUT1r8nX_pad-14" x="185" y="290"/><use xlink:href="#fA8xEWVfnaQmWUT1r8nX_pad-14" x="342.5" y="162.5"/><use xlink:href="#fA8xEWVfnaQmWUT1r8nX_pad-14" x="700" y="652.5"/><use xlink:href="#fA8xEWVfnaQmWUT1r8nX_pad-14" x="405" y="652.5"/><use xlink:href="#fA8xEWVfnaQmWUT1r8nX_pad-14" x="757.5" y="162.5"/><use xlink:href="#fA8xEWVfnaQmWUT1r8nX_pad-14" x="462.5" y="162.5"/><use xlink:href="#fA8xEWVfnaQmWUT1r8nX_pad-14" x="402.5" y="162.5"/><use xlink:href="#fA8xEWVfnaQmWUT1r8nX_pad-14" x="582.5" y="162.5"/><use xlink:href="#fA8xEWVfnaQmWUT1r8nX_pad-14" x="820" y="162.5"/><use xlink:href="#fA8xEWVfnaQmWUT1r8nX_pad-14" x="370" y="355"/><use xlink:href="#fA8xEWVfnaQmWUT1r8nX_pad-14" x="210" y="395"/><use xlink:href="#fA8xEWVfnaQmWUT1r8nX_pad-14" x="60" y="715"/><use xlink:href="#fA8xEWVfnaQmWUT1r8nX_pad-14" x="60" y="675"/><use xlink:href="#fA8xEWVfnaQmWUT1r8nX_pad-14" x="190" y="642.5"/><use xlink:href="#fA8xEWVfnaQmWUT1r8nX_pad-14" x="122.5" y="45"/><use xlink:href="#fA8xEWVfnaQmWUT1r8nX_pad-14" x="55" y="45"/><use xlink:href="#fA8xEWVfnaQmWUT1r8nX_pad-14" x="295" y="162.5"/><use xlink:href="#fA8xEWVfnaQmWUT1r8nX_pad-14" x="522.5" y="162.5"/></g><g id="dRuYs_VOfxOShmXWoYRb_top_drill1"><use xlink:href="#Iuei8qnMiVP4nGLohRj-_pad-1" x="897.5" y="732.5"/><use xlink:href="#Iuei8qnMiVP4nGLohRj-_pad-1" x="895" y="65"/></g><g id="dRuYs_VOfxOShmXWoYRb_top_drill2"><use xlink:href="#sPzsNYhzyNIth3kAeZhu_pad-1" x="185" y="290"/><use xlink:href="#sPzsNYhzyNIth3kAeZhu_pad-1" x="342.5" y="162.5"/><use xlink:href="#sPzsNYhzyNIth3kAeZhu_pad-1" x="700" y="652.5"/><use xlink:href="#sPzsNYhzyNIth3kAeZhu_pad-1" x="405" y="652.5"/><use xlink:href="#sPzsNYhzyNIth3kAeZhu_pad-1" x="757.5" y="162.5"/><use xlink:href="#sPzsNYhzyNIth3kAeZhu_pad-1" x="462.5" y="162.5"/><use xlink:href="#sPzsNYhzyNIth3kAeZhu_pad-1" x="402.5" y="162.5"/><use xlink:href="#sPzsNYhzyNIth3kAeZhu_pad-1" x="582.5" y="162.5"/><use xlink:href="#sPzsNYhzyNIth3kAeZhu_pad-1" x="820" y="162.5"/><use xlink:href="#sPzsNYhzyNIth3kAeZhu_pad-1" x="370" y="355"/><use xlink:href="#sPzsNYhzyNIth3kAeZhu_pad-1" x="210" y="395"/><use xlink:href="#sPzsNYhzyNIth3kAeZhu_pad-1" x="60" y="715"/><use xlink:href="#sPzsNYhzyNIth3kAeZhu_pad-1" x="60" y="675"/><use xlink:href="#sPzsNYhzyNIth3kAeZhu_pad-1" x="190" y="642.5"/><use xlink:href="#sPzsNYhzyNIth3kAeZhu_pad-1" x="122.5" y="45"/><use xlink:href="#sPzsNYhzyNIth3kAeZhu_pad-1" x="55" y="45"/><use xlink:href="#sPzsNYhzyNIth3kAeZhu_pad-1" x="295" y="162.5"/><use xlink:href="#sPzsNYhzyNIth3kAeZhu_pad-1" x="522.5" y="162.5"/><use xlink:href="#sPzsNYhzyNIth3kAeZhu_pad-2" x="330" y="750"/><use xlink:href="#sPzsNYhzyNIth3kAeZhu_pad-2" x="430" y="750"/><use xlink:href="#sPzsNYhzyNIth3kAeZhu_pad-2" x="530" y="750"/><use xlink:href="#sPzsNYhzyNIth3kAeZhu_pad-2" x="630" y="750"/><use xlink:href="#sPzsNYhzyNIth3kAeZhu_pad-2" x="730" y="750"/><use xlink:href="#sPzsNYhzyNIth3kAeZhu_pad-2" x="330" y="50"/><use xlink:href="#sPzsNYhzyNIth3kAeZhu_pad-2" x="430" y="50"/><use xlink:href="#sPzsNYhzyNIth3kAeZhu_pad-2" x="530" y="50"/><use xlink:href="#sPzsNYhzyNIth3kAeZhu_pad-2" x="630" y="50"/><use xlink:href="#sPzsNYhzyNIth3kAeZhu_pad-2" x="730" y="50"/><use xlink:href="#sPzsNYhzyNIth3kAeZhu_pad-2" x="57.5" y="150"/><use xlink:href="#sPzsNYhzyNIth3kAeZhu_pad-2" x="57.5" y="250"/><use xlink:href="#sPzsNYhzyNIth3kAeZhu_pad-2" x="57.5" y="350"/><use xlink:href="#sPzsNYhzyNIth3kAeZhu_pad-2" x="57.5" y="450"/><use xlink:href="#sPzsNYhzyNIth3kAeZhu_pad-2" x="57.5" y="550"/></g><clipPath id="dRuYs_VOfxOShmXWoYRb_top_outline"><path d="M 0 800 0 800 7.5 800 7.5 0 1080 0 1080 800 0 800" fill="none" stroke-width="10"/></clipPath><mask id="dRuYs_VOfxOShmXWoYRb_top_mech-mask"><g fill="#000" stroke="#000"><rect x="0" y="0" width="1080" height="800" fill="#fff"/><use xlink:href="#dRuYs_VOfxOShmXWoYRb_top_drill1"/><use xlink:href="#dRuYs_VOfxOShmXWoYRb_top_drill2"/></g></mask><mask id="dRuYs_VOfxOShmXWoYRb_top_cf-mask"><g fill="#fff" stroke="#fff"><use xlink:href="#dRuYs_VOfxOShmXWoYRb_top_soldermask"/></g></mask><mask id="dRuYs_VOfxOShmXWoYRb_top_sm-mask"><g fill="#000" stroke="#000"><rect x="0" y="0" width="1080" height="800" fill="#fff"/><use xlink:href="#dRuYs_VOfxOShmXWoYRb_top_soldermask"/></g></mask></defs><g transform="translate(0,800) scale(1,-1)"><g mask="url(#dRuYs_VOfxOShmXWoYRb_top_mech-mask)" clip-path="url(#dRuYs_VOfxOShmXWoYRb_top_outline)"><rect x="0" y="0" width="1080" height="800" fill="currentColor" class="dRuYs_VOfxOShmXWoYRb_fr4"/><use xlink:href="#dRuYs_VOfxOShmXWoYRb_top_copper" fill="currentColor" stroke="currentColor" class="dRuYs_VOfxOShmXWoYRb_cu"/><use xlink:href="#dRuYs_VOfxOShmXWoYRb_top_copper" fill="currentColor" stroke="currentColor" class="dRuYs_VOfxOShmXWoYRb_cf" mask="url(#dRuYs_VOfxOShmXWoYRb_top_cf-mask)"/><g mask="url(#dRuYs_VOfxOShmXWoYRb_top_sm-mask)"><rect x="0" y="0" width="1080" height="800" fill="currentColor" class="dRuYs_VOfxOShmXWoYRb_sm"/><use xlink:href="#dRuYs_VOfxOShmXWoYRb_top_silkscreen" fill="currentColor" stroke="currentColor" class="dRuYs_VOfxOShmXWoYRb_ss"/></g><use xlink:href="#dRuYs_VOfxOShmXWoYRb_top_solderpaste" fill="currentColor" stroke="currentColor" class="dRuYs_VOfxOShmXWoYRb_sp"/></g></g></svg>